<?xml version="1.0" encoding="UTF-8" standalone="no"?>
<!-- Created with Inkscape (http://www.inkscape.org/) -->

<svg
   width="210mm"
   height="297mm"
   viewBox="0 0 210 297"
   version="1.1"
   id="svg5"
   inkscape:version="1.1 (ce6663b3b7, 2021-05-25)"
   sodipodi:docname="shared_cap2_learn_cuda_transpose.svg"
   xmlns:inkscape="http://www.inkscape.org/namespaces/inkscape"
   xmlns:sodipodi="http://sodipodi.sourceforge.net/DTD/sodipodi-0.dtd"
   xmlns="http://www.w3.org/2000/svg"
   xmlns:svg="http://www.w3.org/2000/svg">
  <sodipodi:namedview
     id="namedview7"
     pagecolor="#ffffff"
     bordercolor="#666666"
     borderopacity="1.0"
     inkscape:pageshadow="2"
     inkscape:pageopacity="0.0"
     inkscape:pagecheckerboard="0"
     inkscape:document-units="mm"
     showgrid="false"
     inkscape:zoom="0.8565854"
     inkscape:cx="349.64406"
     inkscape:cy="283.10079"
     inkscape:window-width="1294"
     inkscape:window-height="704"
     inkscape:window-x="72"
     inkscape:window-y="27"
     inkscape:window-maximized="1"
     inkscape:current-layer="layer1" />
  <defs
     id="defs2" />
  <g
     inkscape:label="Layer 1"
     inkscape:groupmode="layer"
     id="layer1">
    <rect
       style="fill:#0000ff;stroke:#000000;stroke-width:0.264999"
       id="rect31"
       width="13.190475"
       height="12.596517"
       x="6.3483276"
       y="16.183411"
       ry="0.44816184" />
    <rect
       style="fill:#008080;stroke:#000000;stroke-width:0.264999"
       id="rect31-3"
       width="13.190475"
       height="12.596517"
       x="19.538803"
       y="16.183411"
       ry="0.44816184" />
    <rect
       style="fill:#ff00ff;stroke:#000000;stroke-width:0.264999"
       id="rect31-6"
       width="13.190475"
       height="12.596517"
       x="32.729279"
       y="16.183411"
       ry="0.44816184" />
    <rect
       style="fill:#ffff00;stroke:#000000;stroke-width:0.264999"
       id="rect31-3-7"
       width="13.190475"
       height="12.596517"
       x="45.919754"
       y="16.183411"
       ry="0.44816184" />
    <rect
       style="fill:#0000ff;stroke:#000000;stroke-width:0.264999"
       id="rect31-5"
       width="13.190475"
       height="12.596517"
       x="6.3483295"
       y="28.779926"
       ry="0.44816184" />
    <rect
       style="fill:#008080;stroke:#000000;stroke-width:0.264999"
       id="rect31-3-3"
       width="13.190475"
       height="12.596517"
       x="19.538803"
       y="28.779926"
       ry="0.44816184" />
    <rect
       style="fill:#ff00ff;stroke:#000000;stroke-width:0.264999"
       id="rect31-6-5"
       width="13.190475"
       height="12.596517"
       x="32.729279"
       y="28.779926"
       ry="0.44816184" />
    <rect
       style="fill:#ffff00;stroke:#000000;stroke-width:0.264999"
       id="rect31-3-7-6"
       width="13.190475"
       height="12.596517"
       x="45.919754"
       y="28.779926"
       ry="0.44816184" />
    <rect
       style="fill:#0000ff;stroke:#000000;stroke-width:0.264999"
       id="rect31-2"
       width="13.190475"
       height="12.596517"
       x="6.3483295"
       y="41.376442"
       ry="0.44816184" />
    <rect
       style="fill:#008080;stroke:#000000;stroke-width:0.264999"
       id="rect31-3-9"
       width="13.190475"
       height="12.596517"
       x="19.538805"
       y="41.376442"
       ry="0.44816184" />
    <rect
       style="fill:#ff00ff;stroke:#000000;stroke-width:0.264999"
       id="rect31-6-1"
       width="13.190475"
       height="12.596517"
       x="32.729279"
       y="41.376442"
       ry="0.44816184" />
    <rect
       style="fill:#ffff00;stroke:#000000;stroke-width:0.264999"
       id="rect31-3-7-2"
       width="13.190475"
       height="12.596517"
       x="45.919754"
       y="41.376442"
       ry="0.44816184" />
    <rect
       style="fill:#0000ff;stroke:#000000;stroke-width:0.264999"
       id="rect31-5-7"
       width="13.190475"
       height="12.596517"
       x="6.3483315"
       y="53.972954"
       ry="0.44816184" />
    <rect
       style="fill:#008080;stroke:#000000;stroke-width:0.264999"
       id="rect31-3-3-0"
       width="13.190475"
       height="12.596517"
       x="19.538805"
       y="53.972954"
       ry="0.44816184" />
    <rect
       style="fill:#ff00ff;stroke:#000000;stroke-width:0.264999"
       id="rect31-6-5-9"
       width="13.190475"
       height="12.596517"
       x="32.729279"
       y="53.972954"
       ry="0.44816184" />
    <rect
       style="fill:#ffff00;stroke:#000000;stroke-width:0.264999"
       id="rect31-3-7-6-3"
       width="13.190475"
       height="12.596517"
       x="45.919754"
       y="53.972954"
       ry="0.44816184" />
    <rect
       style="fill:#0000ff;stroke:#000000;stroke-width:0.264999"
       id="rect31-60"
       width="13.190475"
       height="12.596517"
       x="134.55083"
       y="76.276894"
       ry="0.44816184" />
    <rect
       style="fill:#008080;stroke:#000000;stroke-width:0.264999"
       id="rect31-3-6"
       width="13.190475"
       height="12.596517"
       x="147.7413"
       y="76.276894"
       ry="0.44816184" />
    <rect
       style="fill:#ff00ff;stroke:#000000;stroke-width:0.264999"
       id="rect31-6-2"
       width="13.190475"
       height="12.596517"
       x="160.93178"
       y="76.276894"
       ry="0.44816184" />
    <rect
       style="fill:#ffff00;stroke:#000000;stroke-width:0.264999"
       id="rect31-3-7-61"
       width="13.190475"
       height="12.596517"
       x="174.12225"
       y="76.276894"
       ry="0.44816184" />
    <rect
       style="fill:#0000ff;stroke:#000000;stroke-width:0.264999"
       id="rect31-5-8"
       width="13.190475"
       height="12.596517"
       x="134.55083"
       y="88.873405"
       ry="0.44816184" />
    <rect
       style="fill:#008080;stroke:#000000;stroke-width:0.264999"
       id="rect31-3-3-7"
       width="13.190475"
       height="12.596517"
       x="147.7413"
       y="88.873405"
       ry="0.44816184" />
    <rect
       style="fill:#ff00ff;stroke:#000000;stroke-width:0.264999"
       id="rect31-6-5-92"
       width="13.190475"
       height="12.596517"
       x="160.93178"
       y="88.873405"
       ry="0.44816184" />
    <rect
       style="fill:#ffff00;stroke:#000000;stroke-width:0.264999"
       id="rect31-3-7-6-0"
       width="13.190475"
       height="12.596517"
       x="174.12225"
       y="88.873405"
       ry="0.44816184" />
    <rect
       style="fill:#0000ff;stroke:#000000;stroke-width:0.264999"
       id="rect31-2-2"
       width="13.190475"
       height="12.596517"
       x="134.55083"
       y="101.46992"
       ry="0.44816184" />
    <rect
       style="fill:#008080;stroke:#000000;stroke-width:0.264999"
       id="rect31-3-9-3"
       width="13.190475"
       height="12.596517"
       x="147.7413"
       y="101.46992"
       ry="0.44816184" />
    <rect
       style="fill:#ff00ff;stroke:#000000;stroke-width:0.264999"
       id="rect31-6-1-7"
       width="13.190475"
       height="12.596517"
       x="160.93178"
       y="101.46992"
       ry="0.44816184" />
    <rect
       style="fill:#ffff00;stroke:#000000;stroke-width:0.264999"
       id="rect31-3-7-2-5"
       width="13.190475"
       height="12.596517"
       x="174.12225"
       y="101.46992"
       ry="0.44816184" />
    <rect
       style="fill:#0000ff;stroke:#000000;stroke-width:0.264999"
       id="rect31-5-7-9"
       width="13.190475"
       height="12.596517"
       x="134.55083"
       y="114.06644"
       ry="0.44816184" />
    <rect
       style="fill:#008080;stroke:#000000;stroke-width:0.264999"
       id="rect31-3-3-0-2"
       width="13.190475"
       height="12.596517"
       x="147.7413"
       y="114.06644"
       ry="0.44816184" />
    <rect
       style="fill:#ff00ff;stroke:#000000;stroke-width:0.264999"
       id="rect31-6-5-9-2"
       width="13.190475"
       height="12.596517"
       x="160.93178"
       y="114.06644"
       ry="0.44816184" />
    <rect
       style="fill:#ffff00;stroke:#000000;stroke-width:0.264999"
       id="rect31-3-7-6-3-8"
       width="13.190475"
       height="12.596517"
       x="174.12225"
       y="114.06644"
       ry="0.44816184" />
    <text
       xml:space="preserve"
       style="font-size:11.2889px;line-height:1.25;font-family:sans-serif;letter-spacing:0px;word-spacing:0px;stroke-width:0.264583"
       x="14.189402"
       y="3.5052695"
       id="text904"><tspan
         sodipodi:role="line"
         id="tspan902"
         style="font-size:11.2889px;stroke-width:0.264583"
         x="14.189402"
         y="3.5052695">Shared</tspan></text>
    <text
       xml:space="preserve"
       style="font-size:11.2889px;line-height:1.25;font-family:sans-serif;letter-spacing:0px;word-spacing:0px;stroke-width:0.264583"
       x="134.00185"
       y="54.47113"
       id="text904-9"><tspan
         sodipodi:role="line"
         id="tspan902-7"
         style="font-size:11.2889px;stroke-width:0.264583"
         x="134.00185"
         y="54.47113">Global</tspan></text>
    <text
       xml:space="preserve"
       style="font-size:6.35px;line-height:1.25;font-family:sans-serif;letter-spacing:0px;word-spacing:0px;stroke-width:0.264583"
       x="138.6329"
       y="72.818611"
       id="text5538"><tspan
         sodipodi:role="line"
         id="tspan5536"
         style="font-size:6.35px;stroke-width:0.264583"
         x="138.6329"
         y="72.818611">t0   t1  t2   t3</tspan></text>
    <path
       style="fill:none;stroke:#000000;stroke-width:0.264583px;stroke-linecap:butt;stroke-linejoin:miter;stroke-opacity:1"
       d="m 125.91439,83.594526 c 72.06484,-1.614302 72.06484,-1.614302 72.06484,-1.614302"
       id="path10733" />
    <g
       id="g18888"
       transform="rotate(90,38.080995,133.49655)">
      <rect
         style="fill:#0000ff;stroke:#000000;stroke-width:0.264999"
         id="rect31-60-3"
         width="13.190475"
         height="12.596517"
         x="7.1003675"
         y="92.302574"
         ry="0.44816184" />
      <rect
         style="fill:#008080;stroke:#000000;stroke-width:0.264999"
         id="rect31-3-6-6"
         width="13.190475"
         height="12.596517"
         x="20.290842"
         y="92.302574"
         ry="0.44816184" />
      <rect
         style="fill:#ff00ff;stroke:#000000;stroke-width:0.264999"
         id="rect31-6-2-1"
         width="13.190475"
         height="12.596517"
         x="33.481319"
         y="92.302574"
         ry="0.44816184" />
      <rect
         style="fill:#ffff00;stroke:#000000;stroke-width:0.264999"
         id="rect31-3-7-61-2"
         width="13.190475"
         height="12.596517"
         x="46.671795"
         y="92.302574"
         ry="0.44816184" />
      <rect
         style="fill:#0000ff;stroke:#000000;stroke-width:0.264999"
         id="rect31-5-8-9"
         width="13.190475"
         height="12.596517"
         x="7.1003675"
         y="104.89908"
         ry="0.44816184" />
      <rect
         style="fill:#008080;stroke:#000000;stroke-width:0.264999"
         id="rect31-3-3-7-3"
         width="13.190475"
         height="12.596517"
         x="20.290842"
         y="104.89908"
         ry="0.44816184" />
      <rect
         style="fill:#ff00ff;stroke:#000000;stroke-width:0.264999"
         id="rect31-6-5-92-1"
         width="13.190475"
         height="12.596517"
         x="33.481319"
         y="104.89908"
         ry="0.44816184" />
      <rect
         style="fill:#ffff00;stroke:#000000;stroke-width:0.264999"
         id="rect31-3-7-6-0-9"
         width="13.190475"
         height="12.596517"
         x="46.671795"
         y="104.89908"
         ry="0.44816184" />
      <rect
         style="fill:#0000ff;stroke:#000000;stroke-width:0.264999"
         id="rect31-2-2-4"
         width="13.190475"
         height="12.596517"
         x="7.1003675"
         y="117.49558"
         ry="0.44816184" />
      <rect
         style="fill:#008080;stroke:#000000;stroke-width:0.264999"
         id="rect31-3-9-3-7"
         width="13.190475"
         height="12.596517"
         x="20.290842"
         y="117.49558"
         ry="0.44816184" />
      <rect
         style="fill:#ff00ff;stroke:#000000;stroke-width:0.264999"
         id="rect31-6-1-7-8"
         width="13.190475"
         height="12.596517"
         x="33.481319"
         y="117.49558"
         ry="0.44816184" />
      <rect
         style="fill:#ffff00;stroke:#000000;stroke-width:0.264999"
         id="rect31-3-7-2-5-4"
         width="13.190475"
         height="12.596517"
         x="46.671795"
         y="117.49558"
         ry="0.44816184" />
      <rect
         style="fill:#0000ff;stroke:#000000;stroke-width:0.264999"
         id="rect31-5-7-9-5"
         width="13.190475"
         height="12.596517"
         x="7.1003675"
         y="130.09212"
         ry="0.44816184" />
      <rect
         style="fill:#008080;stroke:#000000;stroke-width:0.264999"
         id="rect31-3-3-0-2-0"
         width="13.190475"
         height="12.596517"
         x="20.290842"
         y="130.09212"
         ry="0.44816184" />
      <rect
         style="fill:#ff00ff;stroke:#000000;stroke-width:0.264999"
         id="rect31-6-5-9-2-3"
         width="13.190475"
         height="12.596517"
         x="33.481319"
         y="130.09212"
         ry="0.44816184" />
      <rect
         style="fill:#ffff00;stroke:#000000;stroke-width:0.264999"
         id="rect31-3-7-6-3-8-6"
         width="13.190475"
         height="12.596517"
         x="46.671795"
         y="130.09212"
         ry="0.44816184" />
    </g>
    <path
       style="fill:#000000;stroke:#000000;stroke-width:0.264999"
       id="path10768"
       d="m 159.19336,65.667778 c -0.0976,-1.898666 -0.0946,-3.801041 -0.1038,-5.701763 -0.15274,-2.902037 -0.15525,-5.823675 -0.55104,-8.708043 -0.0868,-0.632402 -0.21045,-1.259194 -0.31567,-1.888792 -0.56336,-3.122289 -2.00399,-5.927926 -3.48401,-8.696134 -1.36483,-2.552742 -1.7085,-3.121988 -3.1589,-5.682734 -2.90573,-4.651489 -5.451,-9.535299 -8.53101,-14.078146 -0.50505,-0.744917 -1.0443,-1.466064 -1.56644,-2.199096 -1.44865,-1.835384 -2.89631,-3.706713 -4.62395,-5.295888 -1.82204,-1.676009 -3.9141,-2.980488 -5.99219,-4.3038785 -4.37446,-2.7032831 -8.89001,-5.2064721 -13.58532,-7.312437 -0.77414,-0.3472201 -1.5613,-0.664636 -2.34195,-0.99695397 -4.56974,-1.83966703 -9.38786,-2.96824903 -14.20225,-3.95440973 -5.422413,-0.8036612 -10.87256,-1.4404998 -16.336457,-1.8841492 -1.894417,-0.1401762 -3.792421,-0.2240669 -5.690388,-0.2976089 -0.945206,-0.036625 -1.710997,-0.083412 -2.65081,-0.023236 -0.457843,0.029316 -0.912649,0.094791 -1.368973,0.1421866 -4.553892,0.8670046 -9.084799,1.8575562 -13.607886,2.8730375 -1.495578,0.3949742 -3.035639,0.6880165 -4.469217,1.290359 -0.473419,0.19891547 -0.939051,0.4192131 -1.387531,0.66933425 C 51.172236,1.88001 51.89429,1.4365952 49.352885,3.1866479 c -2.51763,1.982393 -5.242944,3.6812802 -7.7905,5.6206752 -0.634601,0.4965695 -1.023279,1.1743211 -1.429274,1.8505499 0,0 3.489674,-1.5411197 3.489674,-1.5411197 v 0 C 44.023454,8.4880832 44.430669,7.8785044 45.037097,7.422127 47.535983,5.5104005 50.169108,3.7776009 52.68075,1.8820608 53.174719,1.554095 54.755568,0.89342802 54.162658,0.89816329 53.487063,0.90355929 52.943804,1.4946505 52.391918,1.8843675 51.982734,2.1733161 53.273626,1.406546 53.731244,1.202808 54.57459,0.82733913 55.631587,0.50801099 56.511385,0.25834059 c 0.592976,-0.16827585 1.191075,-0.31795602 1.786612,-0.47693403 4.454099,-1.06839406 8.93263,-2.05591466 13.451602,-2.80932576 0.44531,-0.050373 0.889275,-0.1144926 1.335924,-0.1511186 1.049858,-0.08609 1.642234,-0.066432 2.713466,-0.051631 1.933096,0.026709 3.865557,0.091458 5.795695,0.2032225 5.470882,0.3598746 10.936007,0.8930198 16.341703,1.8274218 4.807003,0.95961818 9.595053,2.1296992 14.178163,3.8905303 5.55013,2.2579499 10.9674,4.8739824 15.95917,8.2113362 1.97911,1.374904 4.00406,2.733271 5.80905,4.340049 1.74694,1.55511 3.25085,3.358798 4.70337,5.183518 0.53159,0.721661 1.08017,1.431115 1.59478,2.164983 1.15878,1.652488 2.17197,3.281924 3.2394,4.996378 1.84777,2.96781 3.65919,5.959126 5.37113,9.007811 1.43931,2.62636 1.73067,3.097811 3.04768,5.730648 0.70989,1.419143 1.602,3.239894 2.16332,4.750329 0.59053,1.589063 0.71286,2.331815 1.09153,3.951578 0.0978,0.625991 0.21189,1.249662 0.29349,1.877973 0.37582,2.893645 0.40207,5.820659 0.41949,8.733478 -0.009,1.936001 -0.008,3.873479 -0.1038,5.807535 0,0 3.4902,-1.778344 3.4902,-1.778344 z" />
    <circle
       id="path10803"
       style="fill:#000000;stroke:#000000;stroke-width:0.264583"
       cx="76.049004"
       cy="97.735916"
       r="0.033502724" />
    <circle
       id="path10805"
       style="fill:#000000;stroke:#000000;stroke-width:0.264583"
       cx="76.049004"
       cy="97.735916"
       r="0.033502724" />
    <path
       style="fill:#000000;stroke:#000000;stroke-width:0.264999"
       id="path10807"
       d="m -18.181275,23.839735 c 3.490316,-0.114639 6.981783,-0.170232 10.4737605,-0.202967 8.39121145,-0.170697 16.7827677,-0.08468 25.1742565,-0.0084 1.094715,0.0019 2.189442,0.01138 3.284144,0.0058 3.365728,-0.01728 5.797895,-0.08184 9.250332,-0.121463 5.899028,-0.06771 11.796447,-0.06662 17.695608,-0.03263 6.883585,0.07446 13.767223,0.142822 20.650816,0.216286 1.724554,0.01217 3.448989,0.0336 5.173366,0.06035 0,0 2.950975,-2.144007 2.950975,-2.144007 v 0 c -1.779757,0.02647 -3.559567,0.048 -5.339488,0.06035 -7.082054,0.07343 -14.164151,0.141898 -21.246197,0.216285 -5.869215,0.03329 -11.736721,0.03693 -17.605788,-0.03263 -3.466316,-0.04108 -5.561398,-0.103992 -8.915973,-0.121463 -1.09999,-0.0057 -2.200007,0.0038 -3.300011,0.0058 -8.383728,0.07431 -16.7676354,0.164756 -25.1510355,-0.0084 -3.3057978,-0.03181 -6.6111255,-0.08438 -9.9150405,-0.202967 0,0 -3.179725,2.310205 -3.179725,2.310205 z" />
    <text
       xml:space="preserve"
       style="font-size:11.28888889px;line-height:1.25;font-family:sans-serif;letter-spacing:0px;word-spacing:0px;stroke-width:0.264583"
       x="174.61983"
       y="58.773781"
       id="text13575"><tspan
         sodipodi:role="line"
         id="tspan13573"
         style="stroke-width:0.264583;font-size:11.28888889px"
         x="174.61983"
         y="58.773781">input</tspan></text>
    <path
       style="fill:#000000;stroke:#000000;stroke-width:0.264999"
       id="path18923"
       d="m 10.371196,11.742408 c -0.03707,4.132825 -0.6200663,8.245598 -1.0595942,12.351262 -0.2712905,2.932774 -0.6655866,5.85135 -0.9186717,8.785759 -0.1934461,2.706886 -0.2185067,5.424265 -0.068062,8.133297 0.2411248,2.986397 0.4232068,5.977493 0.6651945,8.96361 0.2109563,2.412047 0.6899518,4.782272 1.1517814,7.154584 0.31919,1.67944 0.416969,3.387577 0.455475,5.093121 0.0137,1.253913 0.0699,2.510657 -0.05611,3.759512 -0.03359,0.262258 -0.06718,0.524515 -0.100763,0.786773 0,0 3.42733,-1.690653 3.42733,-1.690653 v 0 c 0.03549,-0.267094 0.07099,-0.534189 0.10648,-0.801286 0.132534,-1.267846 0.0715,-2.542952 0.0479,-3.816217 -0.09498,-1.712995 -0.216577,-3.430209 -0.54257,-5.117343 -0.499436,-2.344219 -0.982412,-4.689113 -1.19749,-7.081621 -0.271737,-2.98197 -0.455576,-5.970429 -0.65441,-8.957876 -0.167866,-2.69838 -0.0809,-5.39972 0.110058,-8.095668 0.228495,-2.90885 0.613073,-5.802705 0.79008,-8.716021 0.357596,-4.183507 0.848238,-8.3512 1.319857,-12.5225901 0,0 -3.476484,1.7713571 -3.476484,1.7713571 z" />
    <path
       style="fill:#000000;stroke:#000000;stroke-width:0.264999"
       id="path18925"
       d="m 5.3034202,108.63511 c 2.941239,0.32179 5.9118048,0.32114 8.8677958,0.37578 4.457323,0.0759 8.915472,0.0587 13.373089,0.0261 7.124168,0.14474 14.245677,0.40557 21.360833,0.78997 4.158491,0.27767 8.324776,0.36329 12.490709,0.43239 1.721872,0.08 3.450312,-0.005 5.171639,0.0862 0.891114,0.047 2.292262,0.19083 3.161858,0.27373 3.180432,0.27803 6.367002,0.47931 9.554456,0.65644 1.762537,0.13644 3.528626,0.0648 5.293772,0.0537 0.433541,5.2e-4 0.867082,0.001 1.300623,0.002 0,0 3.016888,-2.19217 3.016888,-2.19217 v 0 c -0.435581,10e-4 -0.871159,0.002 -1.30674,0.003 -1.748401,-0.0114 -3.496191,-0.0557 -5.244566,-0.0707 -3.214748,-0.0819 -6.429385,-0.23813 -9.628571,-0.57522 -0.03153,-0.003 -2.985807,-0.32737 -3.117733,-0.33736 -1.74779,-0.13233 -3.504081,0.01 -5.253657,-0.0362 -4.222138,-0.0247 -8.442825,-0.12992 -12.661889,-0.29411 -7.113601,-0.25503 -14.228281,-0.47682 -21.338177,-0.82515 -4.415929,-0.0376 -8.832153,-0.0448 -13.247825,-0.10844 -2.86249,-0.0608 -5.746692,-0.0701 -8.5838173,-0.49112 0,0 -3.2086875,2.2314 -3.2086875,2.2314 z" />
    <text
       xml:space="preserve"
       style="font-size:9.87777778px;line-height:1.25;font-family:sans-serif;letter-spacing:0px;word-spacing:0px;stroke-width:0.264583"
       x="35.415562"
       y="93.137794"
       id="text21261"><tspan
         sodipodi:role="line"
         id="tspan21259"
         style="stroke-width:0.264583;font-size:9.87777778px"
         x="35.415562"
         y="93.137794">global</tspan></text>
    <text
       xml:space="preserve"
       style="font-size:11.2889px;line-height:1.25;font-family:sans-serif;letter-spacing:0px;word-spacing:0px;stroke-width:0.264583"
       x="-63.587841"
       y="65.206337"
       id="text25113"><tspan
         sodipodi:role="line"
         id="tspan25111"
         style="font-size:11.2889px;stroke-width:0.264583"
         x="-63.587841"
         y="65.206337">ruim</tspan><tspan
         sodipodi:role="line"
         style="font-size:11.2889px;stroke-width:0.264583"
         x="-63.587841"
         y="79.317444"
         id="tspan25115">conflito de banco</tspan><tspan
         sodipodi:role="line"
         style="font-size:11.2889px;stroke-width:0.264583"
         x="-63.587841"
         y="93.428558"
         id="tspan25117"> (mesma coluna)</tspan></text>
  </g>
</svg>
